<svg width="280" height="224" viewBox="0 0 280 224" fill="none" xmlns="http://www.w3.org/2000/svg">
<g opacity="0.2">
<path opacity="0.0344828" d="M65.848 -180.146C68.221 -182.974 71.823 -184.76 76.6424 -185.483C81.4701 -186.207 87.4562 -185.852 94.4776 -184.449C108.52 -181.642 126.494 -174.684 147.195 -164.153C188.582 -143.099 240.665 -107.865 293.615 -63.4348C346.565 -19.0047 390.307 26.1688 418.229 63.271C432.195 81.8286 442.168 98.3221 447.37 111.663C449.972 118.334 451.36 124.168 451.485 129.048C451.61 133.92 450.477 137.777 448.104 140.605C445.731 143.433 442.129 145.219 437.31 145.942C432.482 146.666 426.496 146.312 419.474 144.908C405.433 142.102 387.458 135.144 366.757 124.613C325.37 103.558 273.287 68.3243 220.337 23.8942C167.387 -20.5358 123.645 -65.7094 95.7233 -102.812C81.7576 -121.369 71.7842 -137.863 66.5819 -151.204C63.9805 -157.875 62.5919 -163.709 62.4666 -168.589C62.3416 -173.46 63.4749 -177.318 65.848 -180.146Z" stroke="white" stroke-width="2"/>
<path opacity="0.0689655" d="M80.5528 -198.193C83.1633 -200.803 86.9073 -202.268 91.7713 -202.568C96.6437 -202.869 102.576 -201.994 109.449 -199.984C123.192 -195.964 140.492 -187.466 160.197 -175.171C199.591 -150.589 248.405 -110.951 297.281 -62.0746C346.157 -13.1987 385.796 35.6153 410.378 75.0099C422.673 94.7141 431.171 112.014 435.19 125.758C437.2 132.63 438.075 138.563 437.775 143.435C437.475 148.299 436.01 152.043 433.399 154.654C430.789 157.264 427.045 158.729 422.181 159.029C417.308 159.33 411.376 158.455 404.503 156.445C390.76 152.425 373.46 143.927 353.755 131.632C314.361 107.05 265.547 67.4114 216.671 18.5356C167.795 -30.3403 128.156 -79.1544 103.574 -118.549C91.2791 -138.253 82.7812 -155.553 78.7614 -169.297C76.7514 -176.169 75.8765 -182.102 76.177 -186.974C76.4771 -191.838 77.9423 -195.582 80.5528 -198.193Z" stroke="white" stroke-width="2"/>
<path opacity="0.103448" d="M96.6005 -214.898C99.4286 -217.271 103.286 -218.404 108.158 -218.279C113.038 -218.154 118.871 -216.765 125.542 -214.164C138.884 -208.962 155.377 -198.988 173.935 -185.022C211.037 -157.101 256.21 -113.358 300.641 -60.4086C345.071 -7.45888 380.304 44.6242 401.359 86.0113C411.89 106.712 418.848 124.687 421.654 138.729C423.058 145.75 423.412 151.736 422.688 156.564C421.966 161.383 420.18 164.985 417.352 167.358C414.523 169.731 410.666 170.865 405.794 170.74C400.914 170.615 395.081 169.226 388.41 166.624C375.068 161.422 358.575 151.449 340.017 137.483C302.915 109.561 257.742 65.8189 213.311 12.8692C168.881 -40.0805 133.648 -92.1636 112.593 -133.551C102.062 -154.251 95.1042 -172.226 92.2975 -186.268C90.8941 -193.29 90.5396 -199.276 91.2636 -204.103C91.9865 -208.923 93.7724 -212.525 96.6005 -214.898Z" stroke="white" stroke-width="2"/>
<path opacity="0.137931" d="M113.869 -230.148C116.893 -232.266 120.834 -233.059 125.676 -232.509C130.527 -231.959 136.217 -230.068 142.636 -226.895C155.473 -220.549 171.035 -209.176 188.305 -193.646C222.832 -162.598 264.021 -115.084 303.668 -58.4637C343.314 -1.84314 373.874 53.1126 391.241 96.1772C399.928 117.717 405.293 136.23 406.865 150.463C407.651 157.58 407.483 163.574 406.341 168.32C405.2 173.058 403.107 176.491 400.083 178.609C397.059 180.726 393.118 181.519 388.275 180.97C383.425 180.42 377.734 178.528 371.315 175.355C358.478 169.01 342.917 157.637 325.647 142.107C291.12 111.058 249.93 63.5446 210.284 6.92402C170.638 -49.6965 140.078 -104.652 122.71 -147.717C114.024 -169.257 108.659 -187.77 107.087 -202.003C106.301 -209.12 106.469 -215.114 107.611 -219.86C108.751 -224.598 110.844 -228.031 113.869 -230.148Z" stroke="white" stroke-width="2"/>
<path opacity="0.172414" d="M132.226 -243.843C135.423 -245.689 139.419 -246.135 144.195 -245.166C148.979 -244.195 154.483 -241.815 160.601 -238.094C172.836 -230.654 187.347 -217.969 203.197 -200.992C234.887 -167.052 271.779 -116.13 306.339 -56.2696C340.9 3.59092 366.554 61.001 380.102 105.415C386.879 127.63 390.609 146.54 390.935 160.856C391.098 168.015 390.408 173.971 388.856 178.6C387.307 183.221 384.923 186.458 381.726 188.304C378.529 190.15 374.533 190.596 369.757 189.627C364.973 188.656 359.469 186.276 353.351 182.555C341.116 175.115 326.605 162.429 310.754 145.453C279.064 111.513 242.173 60.5909 207.612 0.73044C173.052 -59.13 147.398 -116.54 133.85 -160.955C127.073 -183.17 123.343 -202.079 123.017 -216.395C122.854 -223.554 123.544 -229.511 125.096 -234.139C126.644 -238.76 129.029 -241.997 132.226 -243.843Z" stroke="white" stroke-width="2"/>
<path opacity="0.206897" d="M151.533 -255.893C154.879 -257.454 158.898 -257.55 163.571 -256.168C168.253 -254.784 173.528 -251.933 179.299 -247.694C190.839 -239.216 204.189 -225.313 218.5 -207.02C247.111 -170.448 279.424 -116.504 308.636 -53.8589C337.847 8.78597 358.4 68.2135 368.026 113.64C372.84 136.361 374.909 155.524 373.985 169.814C373.524 176.959 372.317 182.833 370.368 187.309C368.422 191.777 365.765 194.794 362.419 196.354C359.073 197.914 355.054 198.011 350.381 196.629C345.699 195.245 340.424 192.394 334.653 188.155C323.113 179.677 309.763 165.774 295.452 147.481C266.841 110.908 234.528 56.9644 205.316 -5.68039C176.105 -68.3252 155.552 -127.753 145.926 -173.179C141.112 -195.9 139.043 -215.063 139.966 -229.353C140.428 -236.498 141.635 -242.372 143.584 -246.848C145.529 -251.316 148.187 -254.333 151.533 -255.893Z" stroke="white" stroke-width="2"/>
<path opacity="0.241379" d="M171.642 -266.224C175.111 -267.486 179.123 -267.232 183.659 -265.448C188.201 -263.661 193.208 -260.361 198.587 -255.635C209.345 -246.184 221.432 -231.171 234.094 -211.7C259.409 -172.773 286.898 -116.218 310.538 -51.2655C334.179 13.6869 349.475 74.6797 355.104 120.772C357.92 143.826 358.311 163.097 356.145 177.252C355.063 184.33 353.348 190.076 351.017 194.365C348.689 198.646 345.779 201.42 342.31 202.683C338.841 203.946 334.828 203.691 330.293 201.908C325.75 200.121 320.743 196.821 315.364 192.095C304.607 182.643 292.519 167.63 279.857 148.159C254.543 109.232 227.054 52.6772 203.413 -12.2752C179.773 -77.2276 164.477 -138.22 158.848 -184.313C156.032 -207.367 155.641 -226.637 157.806 -240.792C158.889 -247.87 160.603 -253.617 162.935 -257.905C165.263 -262.187 168.173 -264.961 171.642 -266.224Z" stroke="white" stroke-width="2"/>
<path opacity="0.275862" d="M192.401 -274.768C195.967 -275.723 199.942 -275.12 204.304 -272.948C208.674 -270.772 213.374 -267.048 218.321 -261.871C228.213 -251.518 238.947 -235.508 249.863 -215.008C271.689 -174.023 294.144 -115.287 312.034 -48.5217C329.923 18.244 339.845 80.3377 341.436 126.745C342.232 149.957 340.941 169.188 337.55 183.101C335.855 190.057 333.647 195.632 330.95 199.702C328.258 203.764 325.117 206.274 321.551 207.229C317.985 208.185 314.01 207.582 309.648 205.41C305.278 203.234 300.578 199.51 295.631 194.333C285.739 183.98 275.005 167.97 264.088 147.47C242.263 106.485 219.808 47.7493 201.918 -19.0163C184.028 -85.782 174.107 -147.876 172.516 -194.283C171.72 -217.495 173.011 -236.726 176.401 -250.639C178.097 -257.595 180.305 -263.171 183.002 -267.24C185.694 -271.302 188.835 -273.812 192.401 -274.768Z" stroke="white" stroke-width="2"/>
<path opacity="0.310345" d="M213.651 -281.479C217.286 -282.12 221.194 -281.172 225.35 -278.628C229.514 -276.08 233.871 -271.96 238.348 -266.372C247.301 -255.196 256.598 -238.312 265.686 -216.939C283.857 -174.207 301.107 -113.738 313.11 -45.6669C325.113 22.4039 329.584 85.126 327.125 131.496C325.894 154.689 322.933 173.734 318.342 187.298C316.047 194.08 313.361 199.442 310.32 203.261C307.284 207.073 303.937 209.299 300.301 209.941C296.665 210.582 292.758 209.634 288.602 207.09C284.438 204.542 280.08 200.422 275.604 194.834C266.651 183.658 257.354 166.774 248.265 145.401C230.095 102.669 212.844 42.1998 200.842 -25.8711C188.839 -93.9419 184.367 -156.664 186.827 -203.034C188.057 -226.227 191.019 -245.272 195.609 -258.836C197.905 -265.618 200.591 -270.98 203.632 -274.799C206.667 -278.611 210.015 -280.837 213.651 -281.479Z" stroke="white" stroke-width="2"/>
<path opacity="0.344828" d="M235.231 -286.32C238.908 -286.641 242.718 -285.357 246.637 -282.46C250.563 -279.559 254.545 -275.075 258.517 -269.118C266.462 -257.204 274.252 -239.574 281.443 -217.49C295.82 -173.337 307.735 -111.595 313.759 -42.7368C319.783 26.1211 318.771 88.9943 312.28 134.973C309.033 157.971 304.422 176.685 298.667 189.798C295.79 196.354 292.647 201.461 289.284 205C285.928 208.534 282.399 210.46 278.721 210.782C275.044 211.103 271.234 209.819 267.315 206.923C263.389 204.021 259.407 199.537 255.434 193.58C247.49 181.666 239.7 164.036 232.509 141.952C218.131 97.7992 206.217 36.0569 200.193 -32.801C194.169 -101.659 195.18 -164.532 201.672 -210.511C204.919 -233.508 209.529 -252.223 215.285 -265.336C218.162 -271.892 221.305 -276.999 224.667 -280.538C228.024 -284.071 231.553 -285.998 235.231 -286.32Z" stroke="white" stroke-width="2"/>
<path opacity="0.37931" d="M256.976 -289.27C260.668 -289.27 264.351 -287.658 268.003 -284.431C271.661 -281.198 275.237 -276.385 278.675 -270.104C285.551 -257.543 291.775 -239.301 297.014 -216.674C307.488 -171.436 313.976 -108.891 313.976 -39.7697C313.976 29.3513 307.488 91.897 297.014 137.135C291.775 159.762 285.551 178.004 278.675 190.565C275.237 196.845 271.661 201.659 268.003 204.892C264.351 208.119 260.668 209.73 256.976 209.73C253.284 209.73 249.601 208.119 245.949 204.892C242.291 201.659 238.715 196.845 235.277 190.565C228.401 178.004 222.177 159.762 216.938 137.135C206.464 91.897 199.976 29.3513 199.976 -39.7697C199.976 -108.891 206.464 -171.436 216.938 -216.674C222.177 -239.301 228.401 -257.543 235.277 -270.104C238.715 -276.385 242.291 -281.198 245.949 -284.431C249.601 -287.658 253.284 -289.27 256.976 -289.27Z" stroke="white" stroke-width="2"/>
<path opacity="0.413793" d="M278.721 -290.321C282.399 -289.999 285.928 -288.073 289.284 -284.54C292.647 -281 295.79 -275.893 298.667 -269.337C304.422 -256.225 309.033 -237.51 312.28 -214.512C318.771 -168.533 319.783 -105.66 313.759 -36.8023C307.735 32.0556 295.82 93.7979 281.443 137.951C274.252 160.035 266.462 177.665 258.517 189.579C254.545 195.536 250.563 200.02 246.637 202.921C242.718 205.818 238.908 207.102 235.231 206.78C231.553 206.459 228.024 204.532 224.667 200.999C221.305 197.46 218.162 192.353 215.285 185.796C209.529 172.684 204.919 153.969 201.672 130.972C195.18 84.993 194.169 22.1198 200.193 -46.7381C206.217 -115.596 218.131 -177.338 232.509 -221.491C239.7 -243.576 247.49 -261.206 255.434 -273.119C259.407 -279.076 263.389 -283.56 267.315 -286.462C271.234 -289.358 275.044 -290.643 278.721 -290.321Z" stroke="white" stroke-width="2"/>
<path opacity="0.448276" d="M300.301 -289.48C303.937 -288.839 307.285 -286.612 310.32 -282.8C313.361 -278.981 316.047 -273.62 318.343 -266.837C322.933 -253.273 325.895 -234.228 327.125 -211.035C329.585 -164.665 325.113 -101.943 313.11 -33.8724C301.107 34.1984 283.857 94.6674 265.687 137.399C256.598 158.773 247.301 175.657 238.348 186.833C233.872 192.421 229.514 196.54 225.35 199.089C221.194 201.633 217.286 202.58 213.651 201.939C210.015 201.298 206.667 199.072 203.632 195.259C200.591 191.441 197.905 186.079 195.609 179.297C191.019 165.733 188.057 146.687 186.827 123.494C184.367 77.1247 188.839 14.4025 200.842 -53.6683C212.845 -121.739 230.095 -182.208 248.265 -224.94C257.354 -246.313 266.651 -263.197 275.604 -274.373C280.08 -279.962 284.438 -284.081 288.602 -286.63C292.758 -289.174 296.666 -290.121 300.301 -289.48Z" stroke="white" stroke-width="2"/>
<path opacity="0.482759" d="M321.551 -286.768C325.117 -285.812 328.258 -283.303 330.95 -279.24C333.647 -275.171 335.855 -269.596 337.55 -262.639C340.941 -248.727 342.232 -229.496 341.436 -206.284C339.845 -159.876 329.924 -97.7825 312.034 -31.0168C294.144 35.7489 271.689 94.4843 249.863 135.47C238.947 155.97 228.213 171.979 218.321 182.333C213.374 187.509 208.674 191.233 204.304 193.409C199.942 195.581 195.967 196.185 192.401 195.229C188.835 194.274 185.694 191.764 183.002 187.701C180.305 183.632 178.097 178.057 176.401 171.1C173.011 157.188 171.72 137.957 172.516 114.745C174.107 68.3373 184.028 6.24355 201.918 -60.5221C219.808 -127.288 242.263 -186.023 264.089 -227.009C275.005 -247.509 285.739 -263.518 295.631 -273.871C300.578 -279.048 305.278 -282.772 309.648 -284.948C314.01 -287.12 317.985 -287.723 321.551 -286.768Z" stroke="white" stroke-width="2"/>
<path opacity="0.517241" d="M342.31 -282.223C345.779 -280.96 348.689 -278.186 351.017 -273.905C353.348 -269.616 355.063 -263.87 356.145 -256.792C358.311 -242.637 357.92 -223.366 355.104 -200.312C349.475 -154.22 334.179 -93.2271 310.538 -28.2747C286.898 36.6778 259.409 93.2326 234.094 132.16C221.432 151.631 209.345 166.644 198.587 176.095C193.208 180.821 188.202 184.121 183.659 185.908C179.123 187.692 175.111 187.946 171.642 186.683C168.173 185.421 165.263 182.647 162.935 178.365C160.603 174.076 158.889 168.33 157.807 161.252C155.641 147.097 156.032 127.827 158.848 104.772C164.477 58.6802 179.773 -2.31255 203.413 -67.265C227.054 -132.217 254.543 -188.772 279.858 -227.7C292.519 -247.17 304.607 -262.183 315.364 -271.635C320.744 -276.361 325.75 -279.661 330.293 -281.448C334.828 -283.231 338.841 -283.486 342.31 -282.223Z" stroke="white" stroke-width="2"/>
<path opacity="0.551724" d="M362.419 -275.893C365.765 -274.333 368.422 -271.316 370.368 -266.848C372.317 -262.372 373.524 -256.498 373.985 -249.353C374.909 -235.063 372.84 -215.9 368.026 -193.179C358.4 -147.753 337.847 -88.325 308.635 -25.6801C279.424 36.9647 247.111 90.9086 218.499 127.482C204.189 145.774 190.839 159.677 179.298 168.155C173.528 172.394 168.253 175.245 163.571 176.629C158.898 178.011 154.879 177.915 151.533 176.354C148.187 174.794 145.529 171.777 143.584 167.309C141.635 162.833 140.428 156.959 139.966 149.814C139.043 135.524 141.112 116.361 145.926 93.64C155.552 48.2138 176.105 -11.2138 205.316 -73.8586C234.528 -136.503 266.841 -190.447 295.452 -227.02C309.763 -245.313 323.113 -259.216 334.653 -267.694C340.424 -271.933 345.699 -274.784 350.381 -276.168C355.054 -277.55 359.073 -277.453 362.419 -275.893Z" stroke="white" stroke-width="2"/>
<path opacity="0.586207" d="M381.726 -267.843C384.923 -265.997 387.307 -262.76 388.856 -258.139C390.408 -253.511 391.098 -247.554 390.935 -240.395C390.609 -226.079 386.879 -207.17 380.102 -184.955C366.554 -140.54 340.9 -83.13 306.339 -23.2696C271.779 36.5909 234.887 87.5132 203.197 121.453C187.347 138.429 172.836 151.115 160.601 158.555C154.483 162.276 148.979 164.656 144.195 165.627C139.419 166.596 135.423 166.15 132.226 164.304C129.029 162.458 126.644 159.221 125.096 154.6C123.544 149.971 122.854 144.015 123.017 136.856C123.343 122.54 127.073 103.63 133.85 81.4154C147.398 37.001 173.052 -20.4091 207.612 -80.2696C242.173 -140.13 279.064 -191.052 310.754 -224.992C326.605 -241.969 341.116 -254.654 353.351 -262.094C359.469 -265.815 364.973 -268.195 369.757 -269.166C374.533 -270.135 378.529 -269.689 381.726 -267.843Z" stroke="white" stroke-width="2"/>
<path opacity="0.62069" d="M400.083 -258.148C403.107 -256.03 405.2 -252.597 406.341 -247.859C407.483 -243.113 407.651 -237.119 406.865 -230.002C405.293 -215.769 399.928 -197.256 391.241 -175.716C373.874 -132.652 343.314 -77.6958 303.668 -21.0753C264.021 35.5453 222.832 83.0585 188.305 114.108C171.035 129.638 155.473 141.01 142.636 147.356C136.217 150.529 130.527 152.42 125.676 152.97C120.834 153.52 116.893 152.727 113.869 150.609C110.844 148.492 108.751 145.059 107.611 140.321C106.469 135.575 106.301 129.581 107.087 122.464C108.659 108.231 114.024 89.7178 122.71 68.1779C140.078 25.1133 170.638 -29.8425 210.284 -86.463C249.93 -143.084 291.12 -190.597 325.647 -221.646C342.917 -237.176 358.478 -248.549 371.315 -254.894C377.734 -258.067 383.425 -259.959 388.275 -260.509C393.118 -261.058 397.059 -260.265 400.083 -258.148Z" stroke="white" stroke-width="2"/>
<path opacity="0.655172" d="M417.351 -246.898C420.18 -244.525 421.965 -240.923 422.688 -236.103C423.412 -231.276 423.058 -225.29 421.654 -218.268C418.848 -204.226 411.89 -186.252 401.359 -165.551C380.304 -124.164 345.071 -72.0806 300.641 -19.1309C256.21 33.8188 211.037 77.5614 173.935 105.483C155.377 119.449 138.884 129.422 125.542 134.624C118.871 137.226 113.038 138.614 108.158 138.74C103.286 138.865 99.4285 137.731 96.6005 135.358C93.7724 132.985 91.9865 129.383 91.2636 124.564C90.5395 119.736 90.8941 113.75 92.2975 106.729C95.1041 92.6868 102.062 74.712 112.593 54.0111C133.648 12.6241 168.881 -39.459 213.311 -92.4087C257.742 -145.358 302.915 -189.101 340.017 -217.023C358.575 -230.988 375.068 -240.962 388.41 -246.164C395.081 -248.765 400.914 -250.154 405.794 -250.279C410.666 -250.404 414.523 -249.271 417.351 -246.898Z" stroke="white" stroke-width="2"/>
<path opacity="0.689655" d="M433.399 -234.193C436.01 -231.582 437.475 -227.838 437.775 -222.974C438.075 -218.102 437.2 -212.169 435.19 -205.297C431.171 -191.553 422.673 -174.253 410.378 -154.549C385.796 -115.154 346.157 -66.3404 297.281 -17.4645C248.405 31.4114 199.591 71.0504 160.197 95.6321C140.492 107.927 123.192 116.425 109.449 120.445C102.576 122.455 96.6437 123.33 91.7713 123.029C86.9073 122.729 83.1633 121.264 80.5528 118.654C77.9423 116.043 76.4771 112.299 76.1771 107.435C75.8765 102.563 76.7514 96.6303 78.7615 89.7579C82.7812 76.014 91.2791 58.7141 103.574 39.0098C128.156 -0.384691 167.795 -49.1988 216.671 -98.0746C265.547 -146.951 314.361 -186.59 353.755 -211.171C373.46 -223.466 390.76 -231.964 404.503 -235.984C411.376 -237.994 417.308 -238.869 422.181 -238.568C427.045 -238.268 430.789 -236.803 433.399 -234.193Z" stroke="white" stroke-width="2"/>
<path opacity="0.724138" d="M448.104 -220.145C450.477 -217.317 451.61 -213.459 451.485 -208.588C451.36 -203.708 449.972 -197.874 447.37 -191.203C442.168 -177.862 432.194 -161.368 418.229 -142.811C390.307 -105.709 346.565 -60.535 293.615 -16.105C240.665 28.3251 188.582 63.5588 147.195 84.6135C126.494 95.1446 108.519 102.102 94.4776 104.909C87.4561 106.312 81.47 106.667 76.6423 105.943C71.823 105.22 68.2209 103.434 65.8479 100.606C63.4749 97.7779 62.3416 93.9205 62.4666 89.0488C62.5918 84.1688 63.9805 78.3352 66.5818 71.6641C71.7841 58.3229 81.7575 41.8294 95.7232 23.2718C123.645 -13.8304 167.387 -59.0039 220.337 -103.434C273.287 -147.864 325.37 -183.098 366.757 -204.152C387.458 -214.684 405.433 -221.641 419.474 -224.448C426.496 -225.851 432.482 -226.206 437.31 -225.482C442.129 -224.759 445.731 -222.973 448.104 -220.145Z" stroke="white" stroke-width="2"/>
<path opacity="0.758621" d="M461.354 -204.877C463.472 -201.853 464.265 -197.911 463.716 -193.069C463.166 -188.219 461.274 -182.528 458.101 -176.109C451.756 -163.272 440.383 -147.711 424.853 -130.441C393.804 -95.9135 346.29 -54.7243 289.67 -15.0781C233.049 24.568 178.094 55.1283 135.029 72.4957C113.489 81.1825 94.9763 86.5472 80.7433 88.1193C73.6262 88.9054 67.632 88.7369 62.8858 87.5948C58.1478 86.4547 54.7151 84.3617 52.5976 81.3375C50.48 78.3134 49.6873 74.3718 50.2364 69.5296C50.7865 64.679 52.6783 58.9887 55.8511 52.5697C62.1964 39.7327 73.5693 24.1712 89.0993 6.90136C120.148 -27.6261 167.662 -68.8153 224.282 -108.461C280.903 -148.108 335.858 -178.668 378.923 -196.035C400.463 -204.722 418.976 -210.087 433.209 -211.659C440.326 -212.445 446.32 -212.277 451.066 -211.134C455.804 -209.994 459.237 -207.901 461.354 -204.877Z" stroke="white" stroke-width="2"/>
<path opacity="0.793103" d="M473.049 -188.52C474.895 -185.322 475.341 -181.327 474.372 -176.551C473.402 -171.767 471.021 -166.263 467.301 -160.145C459.861 -147.91 447.175 -133.399 430.199 -117.548C396.259 -85.8581 345.336 -48.9667 285.476 -14.4062C225.616 20.1542 168.205 45.8085 123.791 59.3566C101.576 66.133 82.6661 69.8638 68.3502 70.1894C61.1917 70.3522 55.235 69.6619 50.6064 68.1105C45.9858 66.5618 42.7485 64.1775 40.9026 60.9803C39.0567 57.7831 38.6105 53.7875 39.5796 49.0116C40.5503 44.2274 42.9309 38.7236 46.6511 32.6055C54.0911 20.3704 66.777 5.85937 83.7531 -9.99123C117.693 -41.6812 168.616 -78.5727 228.476 -113.133C288.336 -147.694 345.747 -173.348 390.161 -186.896C412.376 -193.672 431.286 -197.403 445.602 -197.729C452.76 -197.892 458.717 -197.201 463.346 -195.65C467.966 -194.101 471.203 -191.717 473.049 -188.52Z" stroke="white" stroke-width="2"/>
<path opacity="0.827586" d="M483.1 -171.213C484.66 -167.867 484.756 -163.848 483.375 -159.175C481.991 -154.493 479.139 -149.218 474.9 -143.447C466.422 -131.907 452.52 -118.557 434.227 -104.246C397.654 -75.635 343.71 -43.3221 281.065 -14.1103C218.42 15.1014 158.993 35.6545 113.567 45.28C90.8455 50.0945 71.6824 52.1629 57.3926 51.2396C50.2471 50.7779 44.3732 49.5711 39.8975 47.6222C35.4294 45.6766 32.4123 43.0193 30.8521 39.6734C29.2919 36.3275 29.1956 32.3082 30.5772 27.6348C31.9612 22.9535 34.8124 17.6781 39.0517 11.9076C47.5298 0.367462 61.4321 -12.9827 79.7251 -27.2934C116.298 -55.9048 170.242 -88.2177 232.887 -117.429C295.532 -146.641 354.959 -167.194 400.385 -176.82C423.106 -181.634 442.269 -183.703 456.559 -182.779C463.705 -182.318 469.579 -181.111 474.054 -179.162C478.522 -177.216 481.54 -174.559 483.1 -171.213Z" stroke="white" stroke-width="2"/>
<path opacity="0.862069" d="M491.429 -153.104C492.692 -149.635 492.438 -145.622 490.654 -141.087C488.867 -136.544 485.567 -131.537 480.841 -126.158C471.389 -115.401 456.376 -103.313 436.906 -90.6513C397.978 -65.3364 341.423 -37.848 276.471 -14.2072C211.519 9.43353 150.526 24.7289 104.434 30.3586C81.3794 33.1745 62.1089 33.5649 47.954 31.3997C40.876 30.317 35.1296 28.6028 30.8407 26.2712C26.5593 23.9437 23.7853 21.0335 22.5226 17.5643C21.2599 14.0952 21.5143 10.0827 23.298 5.54764C25.0847 1.00472 28.3848 -4.00212 33.111 -9.38117C42.5625 -20.1385 57.5755 -32.2262 77.0461 -44.8881C115.973 -70.203 172.528 -97.6914 237.481 -121.332C302.433 -144.973 363.426 -160.268 409.518 -165.898C432.572 -168.714 451.843 -169.104 465.998 -166.939C473.076 -165.856 478.822 -164.142 483.111 -161.811C487.393 -159.483 490.167 -156.573 491.429 -153.104Z" stroke="white" stroke-width="2"/>
<path opacity="0.896552" d="M497.974 -134.345C498.93 -130.779 498.327 -126.804 496.155 -122.442C493.979 -118.072 490.255 -113.371 485.078 -108.425C474.725 -98.5322 458.715 -87.799 438.215 -76.8822C397.23 -55.0564 338.494 -32.6016 271.729 -14.7118C204.963 3.178 142.869 13.0993 96.4617 14.6904C73.2498 15.4863 54.0186 14.1957 40.1062 10.805C33.1495 9.10953 27.5744 6.90104 23.5051 4.20453C19.4427 1.51265 16.9329 -1.62822 15.9774 -5.19422C15.0219 -8.76023 15.625 -12.7352 17.7972 -17.0976C19.9731 -21.4675 23.697 -26.1677 28.874 -31.1143C39.2271 -41.007 55.2365 -51.7402 75.7365 -62.657C116.722 -84.4828 175.458 -106.938 242.223 -124.827C308.989 -142.717 371.083 -152.639 417.49 -154.23C440.702 -155.025 459.933 -153.735 473.846 -150.344C480.802 -148.649 486.377 -146.44 490.447 -143.744C494.509 -141.052 497.019 -137.911 497.974 -134.345Z" stroke="white" stroke-width="2"/>
<path opacity="0.931035" d="M502.685 -115.095C503.327 -111.459 502.379 -107.552 499.835 -103.396C497.287 -99.2319 493.167 -94.8742 487.579 -90.3975C476.403 -81.4449 459.519 -72.1478 438.146 -63.0593C395.414 -44.8886 334.945 -27.6385 266.874 -15.6357C198.803 -3.63302 136.081 0.838735 89.7113 -1.62091C66.5183 -2.85117 47.4728 -5.81294 33.9089 -10.4033C27.1264 -12.6986 21.765 -15.3846 17.9462 -18.4255C14.1339 -21.4612 11.9074 -24.8089 11.2664 -28.4446C10.6253 -32.0803 11.5726 -35.9876 14.1166 -40.1441C16.6651 -44.3077 20.7845 -48.6654 26.3729 -53.142C37.5488 -62.0947 54.4328 -71.3918 75.8063 -80.4803C118.538 -98.651 179.007 -115.901 247.078 -127.904C315.149 -139.907 377.871 -144.378 424.24 -141.919C447.433 -140.688 466.479 -137.727 480.043 -133.136C486.825 -130.841 492.187 -128.155 496.006 -125.114C499.818 -122.078 502.044 -118.731 502.685 -115.095Z" stroke="white" stroke-width="2"/>
<path opacity="0.965517" d="M505.527 -95.5145C505.848 -91.8368 504.564 -88.0269 501.667 -84.108C498.766 -80.1823 494.282 -76.2002 488.325 -72.2276C476.411 -64.2831 458.781 -56.4929 436.697 -49.3018C392.544 -34.9246 330.802 -23.0104 261.944 -16.9861C193.086 -10.9618 130.213 -11.9736 84.234 -18.4653C61.2365 -21.7123 42.5216 -26.3227 29.4093 -32.0777C22.8527 -34.9555 17.7458 -38.0985 14.2066 -41.4607C10.6734 -44.8171 8.74713 -48.3461 8.42537 -52.0238C8.10361 -55.7016 9.38782 -59.5114 12.2845 -63.4304C15.1861 -67.356 19.6697 -71.3381 25.627 -75.3107C37.5406 -83.2552 55.1706 -91.0454 77.2549 -98.2365C121.408 -112.614 183.15 -124.528 252.008 -130.552C320.866 -136.577 383.739 -135.565 429.718 -129.073C452.715 -125.826 471.43 -121.216 484.543 -115.461C491.099 -112.583 496.206 -109.44 499.745 -106.078C503.279 -102.721 505.205 -99.1923 505.527 -95.5145Z" stroke="white" stroke-width="2"/>
</g>
</svg>
