<svg width="514" height="86" viewBox="0 0 514 86" fill="none" xmlns="http://www.w3.org/2000/svg">
<g opacity="0.2">
<path opacity="0.0344828" d="M65.848 -318.146C68.221 -320.974 71.823 -322.76 76.6424 -323.483C81.4701 -324.207 87.4562 -323.852 94.4776 -322.449C108.52 -319.642 126.494 -312.684 147.195 -302.153C188.582 -281.099 240.665 -245.865 293.615 -201.435C346.565 -157.005 390.307 -111.831 418.229 -74.729C432.195 -56.1714 442.168 -39.6779 447.37 -26.3367C449.972 -19.6656 451.36 -13.832 451.485 -8.95197C451.61 -4.0803 450.477 -0.222855 448.104 2.60522C445.731 5.4333 442.129 7.21922 437.31 7.94207C432.482 8.66616 426.496 8.31159 419.474 6.90818C405.433 4.10155 387.458 -2.85623 366.757 -13.3873C325.37 -34.442 273.287 -69.6757 220.337 -114.106C167.387 -158.536 123.645 -203.709 95.7233 -240.812C81.7576 -259.369 71.7842 -275.863 66.5819 -289.204C63.9805 -295.875 62.5919 -301.709 62.4666 -306.589C62.3416 -311.46 63.4749 -315.318 65.848 -318.146Z" stroke="white" stroke-width="2"/>
<path opacity="0.0689655" d="M80.5528 -336.193C83.1633 -338.803 86.9073 -340.268 91.7713 -340.568C96.6437 -340.869 102.576 -339.994 109.449 -337.984C123.192 -333.964 140.492 -325.466 160.197 -313.171C199.591 -288.589 248.405 -248.951 297.281 -200.075C346.157 -151.199 385.796 -102.385 410.378 -62.9901C422.673 -43.2859 431.171 -25.986 435.19 -12.2421C437.2 -5.36971 438.075 0.562711 437.775 5.43511C437.475 10.2991 436.01 14.0431 433.399 16.6536C430.789 19.2641 427.045 20.7293 422.181 21.0294C417.308 21.3299 411.376 20.455 404.503 18.445C390.76 14.4252 373.46 5.92728 353.755 -6.36791C314.361 -30.9496 265.547 -70.5886 216.671 -119.464C167.795 -168.34 128.156 -217.154 103.574 -256.549C91.2791 -276.253 82.7812 -293.553 78.7614 -307.297C76.7514 -314.169 75.8765 -320.102 76.177 -324.974C76.4771 -329.838 77.9423 -333.582 80.5528 -336.193Z" stroke="white" stroke-width="2"/>
<path opacity="0.103448" d="M96.6005 -352.898C99.4286 -355.271 103.286 -356.404 108.158 -356.279C113.038 -356.154 118.871 -354.765 125.542 -352.164C138.884 -346.962 155.377 -336.988 173.935 -323.022C211.037 -295.101 256.21 -251.358 300.641 -198.409C345.071 -145.459 380.304 -93.3758 401.359 -51.9887C411.89 -31.2879 418.848 -13.3131 421.654 0.72874C423.058 7.75018 423.412 13.7363 422.688 18.564C421.966 23.3833 420.18 26.9854 417.352 29.3584C414.523 31.7314 410.666 32.8647 405.794 32.7397C400.914 32.6145 395.081 31.2258 388.41 28.6245C375.068 23.4222 358.575 13.4488 340.017 -0.516932C302.915 -28.4385 257.742 -72.1811 213.311 -125.131C168.881 -178.081 133.648 -230.164 112.593 -271.551C102.062 -292.251 95.1042 -310.226 92.2975 -324.268C90.8941 -331.29 90.5396 -337.276 91.2636 -342.103C91.9865 -346.923 93.7724 -350.525 96.6005 -352.898Z" stroke="white" stroke-width="2"/>
<path opacity="0.137931" d="M113.869 -368.148C116.893 -370.266 120.834 -371.059 125.676 -370.509C130.527 -369.959 136.217 -368.068 142.636 -364.895C155.473 -358.549 171.035 -347.176 188.305 -331.646C222.832 -300.598 264.021 -253.084 303.668 -196.464C343.314 -139.843 373.874 -84.8874 391.241 -41.8228C399.928 -20.2829 405.293 -1.77014 406.865 12.4629C407.651 19.58 407.483 25.5742 406.341 30.3204C405.2 35.0584 403.107 38.4911 400.083 40.6086C397.059 42.7261 393.118 43.5189 388.275 42.9698C383.425 42.4197 377.734 40.5279 371.315 37.355C358.478 31.0097 342.917 19.6368 325.647 4.10683C291.12 -26.9422 249.93 -74.4554 210.284 -131.076C170.638 -187.697 140.078 -242.652 122.71 -285.717C114.024 -307.257 108.659 -325.77 107.087 -340.003C106.301 -347.12 106.469 -353.114 107.611 -357.86C108.751 -362.598 110.844 -366.031 113.869 -368.148Z" stroke="white" stroke-width="2"/>
<path opacity="0.172414" d="M132.226 -381.843C135.423 -383.689 139.419 -384.135 144.195 -383.166C148.979 -382.195 154.483 -379.815 160.601 -376.094C172.836 -368.654 187.347 -355.969 203.197 -338.992C234.887 -305.052 271.779 -254.13 306.339 -194.27C340.9 -134.409 366.554 -76.999 380.102 -32.5846C386.879 -10.3695 390.609 8.54035 390.935 22.8563C391.098 30.0147 390.408 35.9715 388.856 40.6C387.307 45.2207 384.923 48.4579 381.726 50.3038C378.529 52.1497 374.533 52.5959 369.757 51.6268C364.973 50.6561 359.469 48.2756 353.351 44.5553C341.116 37.1153 326.605 24.4294 310.754 7.45337C279.064 -26.4868 242.173 -77.4091 207.612 -137.27C173.052 -197.13 147.398 -254.54 133.85 -298.955C127.073 -321.17 123.343 -340.079 123.017 -354.395C122.854 -361.554 123.544 -367.511 125.096 -372.139C126.644 -376.76 129.029 -379.997 132.226 -381.843Z" stroke="white" stroke-width="2"/>
<path opacity="0.206897" d="M151.533 -393.893C154.879 -395.454 158.898 -395.55 163.571 -394.168C168.253 -392.784 173.528 -389.933 179.299 -385.694C190.839 -377.216 204.189 -363.313 218.5 -345.02C247.111 -308.448 279.424 -254.504 308.636 -191.859C337.847 -129.214 358.4 -69.7865 368.026 -24.3603C372.84 -1.63919 374.909 17.5239 373.985 31.8137C373.524 38.9592 372.317 44.8331 370.368 49.3088C368.422 53.7769 365.765 56.794 362.419 58.3542C359.073 59.9144 355.054 60.0107 350.381 58.6291C345.699 57.2451 340.424 54.3939 334.653 50.1546C323.113 41.6765 309.763 27.7742 295.452 9.48124C266.841 -27.0917 234.528 -81.0356 205.316 -143.68C176.105 -206.325 155.552 -265.753 145.926 -311.179C141.112 -333.9 139.043 -353.063 139.966 -367.353C140.428 -374.498 141.635 -380.372 143.584 -384.848C145.529 -389.316 148.187 -392.333 151.533 -393.893Z" stroke="white" stroke-width="2"/>
<path opacity="0.241379" d="M171.642 -404.224C175.111 -405.486 179.123 -405.232 183.659 -403.448C188.201 -401.661 193.208 -398.361 198.587 -393.635C209.345 -384.184 221.432 -369.171 234.094 -349.7C259.409 -310.773 286.898 -254.218 310.538 -189.265C334.179 -124.313 349.475 -63.3203 355.104 -17.2281C357.92 5.82616 358.311 25.0966 356.145 39.2516C355.063 46.3296 353.348 52.076 351.017 56.3648C348.689 60.6463 345.779 63.4203 342.31 64.683C338.841 65.9456 334.828 65.6913 330.293 63.9076C325.75 62.1208 320.743 58.8207 315.364 54.0946C304.607 44.6431 292.519 29.6301 279.857 10.1595C254.543 -28.7679 227.054 -85.3228 203.413 -150.275C179.773 -215.228 164.477 -276.22 158.848 -322.313C156.032 -345.367 155.641 -364.637 157.806 -378.792C158.889 -385.87 160.603 -391.617 162.935 -395.905C165.263 -400.187 168.173 -402.961 171.642 -404.224Z" stroke="white" stroke-width="2"/>
<path opacity="0.275862" d="M192.401 -412.768C195.967 -413.723 199.942 -413.12 204.304 -410.948C208.674 -408.772 213.374 -405.048 218.321 -399.871C228.213 -389.518 238.947 -373.508 249.863 -353.008C271.689 -312.023 294.144 -253.287 312.034 -186.522C329.923 -119.756 339.845 -57.6623 341.436 -11.2548C342.232 11.9571 340.941 31.1883 337.55 45.1007C335.855 52.0574 333.647 57.6325 330.95 61.7018C328.258 65.7642 325.117 68.274 321.551 69.2295C317.985 70.185 314.01 69.5819 309.648 67.4097C305.278 65.2338 300.578 61.5099 295.631 56.333C285.739 45.9798 275.005 29.9704 264.088 9.47037C242.263 -31.5152 219.808 -90.2507 201.918 -157.016C184.028 -223.782 174.107 -285.876 172.516 -332.283C171.72 -355.495 173.011 -374.726 176.401 -388.639C178.097 -395.595 180.305 -401.171 183.002 -405.24C185.694 -409.302 188.835 -411.812 192.401 -412.768Z" stroke="white" stroke-width="2"/>
<path opacity="0.310345" d="M213.651 -419.479C217.286 -420.12 221.194 -419.172 225.35 -416.628C229.514 -414.08 233.871 -409.96 238.348 -404.372C247.301 -393.196 256.598 -376.312 265.686 -354.939C283.857 -312.207 301.107 -251.738 313.11 -183.667C325.113 -115.596 329.584 -52.874 327.125 -6.50441C325.894 16.6886 322.933 35.7341 318.342 49.298C316.047 56.0805 313.361 61.4419 310.32 65.2607C307.284 69.073 303.937 71.2995 300.301 71.9405C296.665 72.5816 292.758 71.6344 288.602 69.0903C284.438 66.5418 280.08 62.4224 275.604 56.834C266.651 45.6581 257.354 28.7741 248.265 7.40063C230.095 -35.3313 212.844 -95.8002 200.842 -163.871C188.839 -231.942 184.367 -294.664 186.827 -341.034C188.057 -364.227 191.019 -383.272 195.609 -396.836C197.905 -403.618 200.591 -408.98 203.632 -412.799C206.667 -416.611 210.015 -418.837 213.651 -419.479Z" stroke="white" stroke-width="2"/>
<path opacity="0.344828" d="M235.231 -424.32C238.908 -424.641 242.718 -423.357 246.637 -420.46C250.563 -417.559 254.545 -413.075 258.517 -407.118C266.462 -395.204 274.252 -377.574 281.443 -355.49C295.82 -311.337 307.735 -249.595 313.759 -180.737C319.783 -111.879 318.771 -49.0057 312.28 -3.02696C309.033 19.9706 304.422 38.6854 298.667 51.7977C295.79 58.3543 292.647 63.4612 289.284 67.0004C285.928 70.5336 282.399 72.4599 278.721 72.7817C275.044 73.1034 271.234 71.8192 267.315 68.9225C263.389 66.0209 259.407 61.5374 255.434 55.5801C247.49 43.6664 239.7 26.0364 232.509 3.95212C218.131 -40.2008 206.217 -101.943 200.193 -170.801C194.169 -239.659 195.18 -302.532 201.672 -348.511C204.919 -371.508 209.529 -390.223 215.285 -403.336C218.162 -409.892 221.305 -414.999 224.667 -418.538C228.024 -422.071 231.553 -423.998 235.231 -424.32Z" stroke="white" stroke-width="2"/>
<path opacity="0.37931" d="M256.976 -427.27C260.668 -427.27 264.351 -425.658 268.003 -422.431C271.661 -419.198 275.237 -414.385 278.675 -408.104C285.551 -395.543 291.775 -377.301 297.014 -354.674C307.488 -309.436 313.976 -246.891 313.976 -177.77C313.976 -108.649 307.488 -46.103 297.014 -0.864975C291.775 21.762 285.551 40.0039 278.675 52.5646C275.237 58.8455 271.661 63.659 268.003 66.8918C264.351 70.119 260.668 71.7303 256.976 71.7303C253.284 71.7303 249.601 70.119 245.949 66.8918C242.291 63.659 238.715 58.8455 235.277 52.5646C228.401 40.0039 222.177 21.762 216.938 -0.864975C206.464 -46.103 199.976 -108.649 199.976 -177.77C199.976 -246.891 206.464 -309.436 216.938 -354.674C222.177 -377.301 228.401 -395.543 235.277 -408.104C238.715 -414.385 242.291 -419.198 245.949 -422.431C249.601 -425.658 253.284 -427.27 256.976 -427.27Z" stroke="white" stroke-width="2"/>
<path opacity="0.413793" d="M278.721 -428.321C282.399 -427.999 285.928 -426.073 289.284 -422.54C292.647 -419 295.79 -413.893 298.667 -407.337C304.422 -394.225 309.033 -375.51 312.28 -352.512C318.771 -306.533 319.783 -243.66 313.759 -174.802C307.735 -105.944 295.82 -44.2021 281.443 -0.0491415C274.252 22.0352 266.462 39.6651 258.517 51.5788C254.545 57.5361 250.563 62.0196 246.637 64.9213C242.718 67.818 238.908 69.1022 235.231 68.7804C231.553 68.4586 228.024 66.5324 224.667 62.9992C221.305 59.4599 218.162 54.353 215.285 47.7964C209.529 34.6842 204.919 15.9693 201.672 -7.02822C195.18 -53.007 194.169 -115.88 200.193 -184.738C206.217 -253.596 218.131 -315.338 232.509 -359.491C239.7 -381.576 247.49 -399.206 255.434 -411.119C259.407 -417.076 263.389 -421.56 267.315 -424.462C271.234 -427.358 275.044 -428.643 278.721 -428.321Z" stroke="white" stroke-width="2"/>
<path opacity="0.448276" d="M300.301 -427.48C303.937 -426.839 307.285 -424.612 310.32 -420.8C313.361 -416.981 316.047 -411.62 318.343 -404.837C322.933 -391.273 325.895 -372.228 327.125 -349.035C329.585 -302.665 325.113 -239.943 313.11 -171.872C301.107 -103.802 283.857 -43.3326 265.687 -0.600714C256.598 20.7728 247.301 37.6567 238.348 48.8327C233.872 54.421 229.514 58.5405 225.35 61.0889C221.194 63.633 217.286 64.5803 213.651 63.9392C210.015 63.2981 206.667 61.0716 203.632 57.2594C200.591 53.4405 197.905 48.0791 195.609 41.2967C191.019 27.7327 188.057 8.68723 186.827 -14.5058C184.367 -60.8753 188.839 -123.597 200.842 -191.668C212.845 -259.739 230.095 -320.208 248.265 -362.94C257.354 -384.313 266.651 -401.197 275.604 -412.373C280.08 -417.962 284.438 -422.081 288.602 -424.63C292.758 -427.174 296.666 -428.121 300.301 -427.48Z" stroke="white" stroke-width="2"/>
<path opacity="0.482759" d="M321.551 -424.768C325.117 -423.812 328.258 -421.303 330.95 -417.24C333.647 -413.171 335.855 -407.596 337.55 -400.639C340.941 -386.727 342.232 -367.496 341.436 -344.284C339.845 -297.876 329.924 -235.782 312.034 -169.017C294.144 -102.251 271.689 -43.5157 249.863 -2.53006C238.947 17.97 228.213 33.9794 218.321 44.3325C213.374 49.5095 208.674 53.2334 204.304 55.4093C199.942 57.5814 195.967 58.1846 192.401 57.2291C188.835 56.2735 185.694 53.7637 183.002 49.7014C180.305 45.6321 178.097 40.057 176.401 33.1003C173.011 19.1879 171.72 -0.0432794 172.516 -23.2552C174.107 -69.6627 184.028 -131.756 201.918 -198.522C219.808 -265.288 242.263 -324.023 264.089 -365.009C275.005 -385.509 285.739 -401.518 295.631 -411.871C300.578 -417.048 305.278 -420.772 309.648 -422.948C314.01 -425.12 317.985 -425.723 321.551 -424.768Z" stroke="white" stroke-width="2"/>
<path opacity="0.517241" d="M342.31 -420.223C345.779 -418.96 348.689 -416.186 351.017 -411.905C353.348 -407.616 355.063 -401.87 356.145 -394.792C358.311 -380.637 357.92 -361.366 355.104 -338.312C349.475 -292.22 334.179 -231.227 310.538 -166.275C286.898 -101.322 259.409 -44.7674 234.094 -5.84001C221.432 13.6306 209.345 28.6436 198.587 38.0951C193.208 42.8212 188.202 46.1214 183.659 47.9081C179.123 49.6918 175.111 49.9462 171.642 48.6835C168.173 47.4208 165.263 44.6468 162.935 40.3653C160.603 36.0765 158.889 30.3301 157.807 23.2521C155.641 9.09713 156.032 -10.1733 158.848 -33.2276C164.477 -79.3198 179.773 -140.313 203.413 -205.265C227.054 -270.217 254.543 -326.772 279.858 -365.7C292.519 -385.17 304.607 -400.183 315.364 -409.635C320.744 -414.361 325.75 -417.661 330.293 -419.448C334.828 -421.231 338.841 -421.486 342.31 -420.223Z" stroke="white" stroke-width="2"/>
<path opacity="0.551724" d="M362.419 -413.893C365.765 -412.333 368.422 -409.316 370.368 -404.848C372.317 -400.372 373.524 -394.498 373.985 -387.353C374.909 -373.063 372.84 -353.9 368.026 -331.179C358.4 -285.753 337.847 -226.325 308.635 -163.68C279.424 -101.035 247.111 -47.0914 218.499 -10.5185C204.189 7.77446 190.839 21.6768 179.298 30.1548C173.528 34.3942 168.253 37.2453 163.571 38.6293C158.898 40.011 154.879 39.9147 151.533 38.3545C148.187 36.7942 145.529 33.7771 143.584 29.3091C141.635 24.8333 140.428 18.9594 139.966 11.814C139.043 -2.47581 141.112 -21.6389 145.926 -44.36C155.552 -89.7862 176.105 -149.214 205.316 -211.859C234.528 -274.503 266.841 -328.447 295.452 -365.02C309.763 -383.313 323.113 -397.216 334.653 -405.694C340.424 -409.933 345.699 -412.784 350.381 -414.168C355.054 -415.55 359.073 -415.453 362.419 -413.893Z" stroke="white" stroke-width="2"/>
<path opacity="0.586207" d="M381.726 -405.843C384.923 -403.997 387.307 -400.76 388.856 -396.139C390.408 -391.511 391.098 -385.554 390.935 -378.395C390.609 -364.079 386.879 -345.17 380.102 -322.955C366.554 -278.54 340.9 -221.13 306.339 -161.27C271.779 -101.409 234.887 -50.4868 203.197 -16.5466C187.347 0.429432 172.836 13.1153 160.601 20.5553C154.483 24.2756 148.979 26.6561 144.195 27.6268C139.419 28.5959 135.423 28.1497 132.226 26.3038C129.029 24.4579 126.644 21.2207 125.096 16.6C123.544 11.9715 122.854 6.01474 123.017 -1.14374C123.343 -15.4597 127.073 -34.3695 133.85 -56.5846C147.398 -100.999 173.052 -158.409 207.612 -218.27C242.173 -278.13 279.064 -329.052 310.754 -362.992C326.605 -379.969 341.116 -392.654 353.351 -400.094C359.469 -403.815 364.973 -406.195 369.757 -407.166C374.533 -408.135 378.529 -407.689 381.726 -405.843Z" stroke="white" stroke-width="2"/>
<path opacity="0.62069" d="M400.083 -396.148C403.107 -394.03 405.2 -390.597 406.341 -385.859C407.483 -381.113 407.651 -375.119 406.865 -368.002C405.293 -353.769 399.928 -335.256 391.241 -313.716C373.874 -270.652 343.314 -215.696 303.668 -159.075C264.021 -102.455 222.832 -54.9415 188.305 -23.8925C171.035 -8.36248 155.473 3.01043 142.636 9.35572C136.217 12.5286 130.527 14.4204 125.676 14.9705C120.834 15.5196 116.893 14.7268 113.869 12.6093C110.844 10.4918 108.751 7.05907 107.611 2.32105C106.469 -2.42512 106.301 -8.41935 107.087 -15.5364C108.659 -29.7695 114.024 -48.2822 122.71 -69.8221C140.078 -112.887 170.638 -167.842 210.284 -224.463C249.93 -281.084 291.12 -328.597 325.647 -359.646C342.917 -375.176 358.478 -386.549 371.315 -392.894C377.734 -396.067 383.425 -397.959 388.275 -398.509C393.118 -399.058 397.059 -398.265 400.083 -396.148Z" stroke="white" stroke-width="2"/>
<path opacity="0.655172" d="M417.351 -384.898C420.18 -382.525 421.965 -378.923 422.688 -374.103C423.412 -369.276 423.058 -363.29 421.654 -356.268C418.848 -342.226 411.89 -324.252 401.359 -303.551C380.304 -262.164 345.071 -210.081 300.641 -157.131C256.21 -104.181 211.037 -60.4386 173.935 -32.517C155.377 -18.5513 138.884 -8.57795 125.542 -3.37562C118.871 -0.77426 113.038 0.614396 108.158 0.739614C103.286 0.86462 99.4285 -0.26867 96.6005 -2.64171C93.7724 -5.01475 91.9865 -8.6168 91.2636 -13.4362C90.5395 -18.2638 90.8941 -24.2499 92.2975 -31.2714C95.1041 -45.3132 102.062 -63.288 112.593 -83.9889C133.648 -125.376 168.881 -177.459 213.311 -230.409C257.742 -283.358 302.915 -327.101 340.017 -355.023C358.575 -368.988 375.068 -378.962 388.41 -384.164C395.081 -386.765 400.914 -388.154 405.794 -388.279C410.666 -388.404 414.523 -387.271 417.351 -384.898Z" stroke="white" stroke-width="2"/>
<path opacity="0.689655" d="M433.399 -372.193C436.01 -369.582 437.475 -365.838 437.775 -360.974C438.075 -356.102 437.2 -350.169 435.19 -343.297C431.171 -329.553 422.673 -312.253 410.378 -292.549C385.796 -253.154 346.157 -204.34 297.281 -155.464C248.405 -106.589 199.591 -66.9496 160.197 -42.3679C140.492 -30.0727 123.192 -21.5748 109.449 -17.5551C102.576 -15.545 96.6437 -14.6701 91.7713 -14.9707C86.9073 -15.2707 83.1633 -16.7359 80.5528 -19.3464C77.9423 -21.9569 76.4771 -25.7009 76.1771 -30.5649C75.8765 -35.4373 76.7514 -41.3697 78.7615 -48.2421C82.7812 -61.986 91.2791 -79.2859 103.574 -98.9902C128.156 -138.385 167.795 -187.199 216.671 -236.075C265.547 -284.951 314.361 -324.59 353.755 -349.171C373.46 -361.466 390.76 -369.964 404.503 -373.984C411.376 -375.994 417.308 -376.869 422.181 -376.568C427.045 -376.268 430.789 -374.803 433.399 -372.193Z" stroke="white" stroke-width="2"/>
<path opacity="0.724138" d="M448.104 -358.145C450.477 -355.317 451.61 -351.459 451.485 -346.588C451.36 -341.708 449.972 -335.874 447.37 -329.203C442.168 -315.862 432.194 -299.368 418.229 -280.811C390.307 -243.709 346.565 -198.535 293.615 -154.105C240.665 -109.675 188.582 -74.4412 147.195 -53.3865C126.494 -42.8554 108.519 -35.8976 94.4776 -33.091C87.4561 -31.6876 81.47 -31.333 76.6423 -32.0571C71.823 -32.78 68.2209 -34.5659 65.8479 -37.394C63.4749 -40.2221 62.3416 -44.0795 62.4666 -48.9512C62.5918 -53.8312 63.9805 -59.6648 66.5818 -66.3359C71.7841 -79.6771 81.7575 -96.1706 95.7232 -114.728C123.645 -151.83 167.387 -197.004 220.337 -241.434C273.287 -285.864 325.37 -321.098 366.757 -342.152C387.458 -352.684 405.433 -359.641 419.474 -362.448C426.496 -363.851 432.482 -364.206 437.31 -363.482C442.129 -362.759 445.731 -360.973 448.104 -358.145Z" stroke="white" stroke-width="2"/>
</g>
</svg>
